# xmcd
#
# Track frame offsets:
#	150
#	11936
#	30344
#	56868
#	71892
#	90383
#	113346
#	131660
#	139916
#	157682
#	170021
#	189887
#	202601
#	216997
#
# Disc length: 3111 seconds
#
# Revision: 1
# Processed by: cddbd v1.5.2PL0 Copyright (c) Steve Scherf et al.
# Submitted via: audiograbber 1.83.01
#
DISCID=b90c250e
DTITLE=Dylan, Bob - Ceremonies of the horseman
DYEAR=1900
DGENRE=Blues
TTITLE0=Only a hobo
TTITLE1=If I could do it over, I´d do it all over again
TTITLE2=Boots of spanish leather
TTITLE3=Girl from the north country
TTITLE4=Bob Dylan´s dream
TTITLE5=I shall be free
TTITLE6=Tomorrow is a long time
TTITLE7=Hero blues
TTITLE8=Don´t think twice
TTITLE9=Oxford town
TTITLE10=The rise and fall of Hollis Brown
TTITLE11=Blowin´ in the wind 
TTITLE12=When the ships come in
TTITLE13=The times they are a changing
EXTD=
EXTT0=
EXTT1=
EXTT2=
EXTT3=
EXTT4=
EXTT5=
EXTT6=
EXTT7=
EXTT8=
EXTT9=
EXTT10=
EXTT11=
EXTT12=
EXTT13=
PLAYORDER=
